STARTFONT 2.3
FONT -FontForge-Henny Penny-Book-R-Normal--16-160-72-72-P-91-ISO10646-1
SIZE 16 72 72  2
FONTBOUNDINGBOX 22 30 -2 -11
COMMENT "Generated by fontforge, http://fontforge.sourceforge.net"
COMMENT "Copyright (c) 2012, Brownfox (gayaneh.b@gmail.com), with Reserved Font Name "Henny Penny""
STARTPROPERTIES 40
FOUNDRY "FontForge"
FAMILY_NAME "Henny Penny"
WEIGHT_NAME "Book"
SLANT "R"
SETWIDTH_NAME "Normal"
ADD_STYLE_NAME ""
PIXEL_SIZE 16
POINT_SIZE 160
RESOLUTION_X 72
RESOLUTION_Y 72
SPACING "P"
AVERAGE_WIDTH 91
CHARSET_REGISTRY "ISO10646"
CHARSET_ENCODING "1"
FONTNAME_REGISTRY ""
CHARSET_COLLECTIONS "ISO10646-1"
BITS_PER_PIXEL 2
FONT_NAME "HennyPenny-Regular"
FACE_NAME "Henny Penny"
COPYRIGHT "Copyright (c) 2012, Brownfox (gayaneh.b@gmail.com), with Reserved Font Name "Henny Penny""
FONT_VERSION "1.001"
FONT_ASCENT 13
FONT_DESCENT 3
UNDERLINE_POSITION -2
UNDERLINE_THICKNESS 1
X_HEIGHT 9
CAP_HEIGHT 12
RAW_ASCENT 799
RAW_DESCENT 200
NORM_SPACE 4
RELATIVE_WEIGHT 40
RELATIVE_SETWIDTH 50
SUPERSCRIPT_X 0
SUPERSCRIPT_Y 5
SUPERSCRIPT_SIZE 9
SUBSCRIPT_X 0
SUBSCRIPT_Y 1
SUBSCRIPT_SIZE 9
AVG_LOWERCASE_WIDTH 81
AVG_UPPERCASE_WIDTH 116
ENDPROPERTIES
CHARS 233
STARTCHAR space
ENCODING 32
SWIDTH 270 0
DWIDTH 4 0
BBX 1 1 0 0
BITMAP
00
ENDCHAR
STARTCHAR exclam
ENCODING 33
SWIDTH 249 0
DWIDTH 4 0
BBX 2 16 1 -1
BITMAP
E0
F0
F0
F0
B0
B0
70
60
60
60
50
40
00
00
E0
E0
ENDCHAR
STARTCHAR quotedbl
ENCODING 34
SWIDTH 292 0
DWIDTH 5 0
BBX 3 6 1 7
BITMAP
98
DC
D8
98
88
44
ENDCHAR
STARTCHAR numbersign
ENCODING 35
SWIDTH 1030 0
DWIDTH 17 0
BBX 15 18 1 -5
BITMAP
00004000
00010000
00021400
00052000
40085000
5579D554
00218000
00120000
00820500
16EE5400
56480000
03140000
09200000
0C500000
18800000
01800000
02400000
02000000
ENDCHAR
STARTCHAR dollar
ENCODING 36
SWIDTH 799 0
DWIDTH 13 0
BBX 10 18 1 -3
BITMAP
000100
000510
00BFA0
02D5D0
03C480
03D440
02F400
01FC00
007E00
002F40
041BC0
1453D0
1442D0
2842C0
2E4740
42F900
010000
010000
ENDCHAR
STARTCHAR percent
ENCODING 37
SWIDTH 789 0
DWIDTH 13 0
BBX 12 15 0 0
BITMAP
0B9004
28B014
343420
383480
2C7240
0B9600
000800
002400
0051F8
01874A
020A07
090A07
140B4A
2002F8
400000
ENDCHAR
STARTCHAR ampersand
ENCODING 38
SWIDTH 773 0
DWIDTH 12 0
BBX 12 15 0 -1
BITMAP
01F800
060C00
090C00
092800
09A000
0BC018
0B41B8
2F8528
3DD014
78B020
783820
7C1E91
2E4BD1
07FAFD
000078
ENDCHAR
STARTCHAR quotesingle
ENCODING 39
SWIDTH 174 0
DWIDTH 3 0
BBX 1 5 1 7
BITMAP
80
C0
C0
80
40
ENDCHAR
STARTCHAR parenleft
ENCODING 40
SWIDTH 431 0
DWIDTH 7 0
BBX 7 23 0 -7
BITMAP
0100
0500
0800
1800
2400
3400
7000
B000
B000
B000
B000
B000
B000
7400
7800
3C00
2D00
0E00
0740
0280
00D0
0024
0004
ENDCHAR
STARTCHAR parenright
ENCODING 41
SWIDTH 443 0
DWIDTH 7 0
BBX 7 16 0 -4
BITMAP
2800
0B40
02D0
00F0
0074
0078
003C
003C
003C
0038
0074
00B0
01D0
0740
1900
5000
ENDCHAR
STARTCHAR asterisk
ENCODING 42
SWIDTH 490 0
DWIDTH 8 0
BBX 6 7 1 8
BITMAP
0400
0910
0660
E680
5B40
28D0
10A0
ENDCHAR
STARTCHAR plus
ENCODING 43
SWIDTH 440 0
DWIDTH 7 0
BBX 5 9 1 1
BITMAP
0400
0400
0400
0540
FF80
0500
0500
0100
0100
ENDCHAR
STARTCHAR comma
ENCODING 44
SWIDTH 251 0
DWIDTH 4 0
BBX 3 5 1 -2
BITMAP
E0
F4
70
20
40
ENDCHAR
STARTCHAR hyphen
ENCODING 45
SWIDTH 436 0
DWIDTH 7 0
BBX 5 1 1 3
BITMAP
BF80
ENDCHAR
STARTCHAR period
ENCODING 46
SWIDTH 238 0
DWIDTH 4 0
BBX 3 3 0 -1
BITMAP
28
7C
28
ENDCHAR
STARTCHAR slash
ENCODING 47
SWIDTH 690 0
DWIDTH 11 0
BBX 11 15 0 0
BITMAP
000004
000014
000060
000080
000240
000600
000800
002000
005000
018000
020000
090000
140000
200000
800000
ENDCHAR
STARTCHAR zero
ENCODING 48
SWIDTH 723 0
DWIDTH 12 0
BBX 12 12 0 1
BITMAP
02FE40
0E42E0
280074
74003C
B0002D
B0002D
B0002D
B4002D
78002C
2D0078
0B41E0
01BE40
ENDCHAR
STARTCHAR one
ENCODING 49
SWIDTH 505 0
DWIDTH 8 0
BBX 8 15 0 -1
BITMAP
0100
0340
0B80
2F80
93C0
02C0
01D0
01D0
01E0
00E0
00F0
00F8
02FE
1E40
1400
ENDCHAR
STARTCHAR two
ENCODING 50
SWIDTH 534 0
DWIDTH 9 0
BBX 9 14 0 -1
BITMAP
1BE000
20B800
403D00
402D00
403C00
007800
00B000
01C000
060000
180000
740040
0B9100
01BD00
002800
ENDCHAR
STARTCHAR three
ENCODING 51
SWIDTH 511 0
DWIDTH 8 0
BBX 8 14 0 -1
BITMAP
1000
7FF4
7420
5050
4040
0240
01F4
002D
401F
400F
800B
500F
242D
0BE4
ENDCHAR
STARTCHAR four
ENCODING 52
SWIDTH 712 0
DWIDTH 11 0
BBX 11 16 0 -2
BITMAP
000400
000800
002800
007800
012800
041C00
141D00
A00D00
6D0E00
02EF04
001FF4
0007A0
000780
0007C0
001BE0
000018
ENDCHAR
STARTCHAR five
ENCODING 53
SWIDTH 757 0
DWIDTH 12 0
BBX 12 15 0 -2
BITMAP
000A02
001BEA
0011FD
004028
004000
01F900
001F80
0003D0
4001E0
4001E0
8001E0
8002D0
9003C0
241B40
0BF800
ENDCHAR
STARTCHAR six
ENCODING 54
SWIDTH 598 0
DWIDTH 10 0
BBX 10 12 0 0
BITMAP
02FE00
1E4180
2C0050
79F900
BE0780
B801C0
B401D0
B400D0
7801D0
3C01C0
1E4740
02F900
ENDCHAR
STARTCHAR seven
ENCODING 55
SWIDTH 507 0
DWIDTH 8 0
BBX 8 13 0 0
BITMAP
4005
FFFE
916C
8014
4020
0060
0080
0180
0280
0340
0B00
0F00
1F00
ENDCHAR
STARTCHAR eight
ENCODING 56
SWIDTH 476 0
DWIDTH 8 0
BBX 8 13 0 -1
BITMAP
0BE0
3D14
7C04
7C14
3F50
1FD0
1AF4
603C
900D
C00A
900D
7428
1BE0
ENDCHAR
STARTCHAR nine
ENCODING 57
SWIDTH 601 0
DWIDTH 10 0
BBX 10 12 0 0
BITMAP
0BF800
381F00
B00780
B003D0
B003D0
B403D0
3D0BD0
0BFBD0
0007C0
000B40
642E00
1BE400
ENDCHAR
STARTCHAR colon
ENCODING 58
SWIDTH 246 0
DWIDTH 4 0
BBX 2 9 1 -1
BITMAP
E0
E0
00
00
00
00
00
B0
B0
ENDCHAR
STARTCHAR semicolon
ENCODING 59
SWIDTH 266 0
DWIDTH 4 0
BBX 3 11 1 -4
BITMAP
B4
B4
00
00
00
00
B0
F4
70
50
40
ENDCHAR
STARTCHAR less
ENCODING 60
SWIDTH 522 0
DWIDTH 8 0
BBX 7 8 1 1
BITMAP
0010
0090
0600
2400
E000
1900
0190
0024
ENDCHAR
STARTCHAR equal
ENCODING 61
SWIDTH 655 0
DWIDTH 11 0
BBX 9 4 1 3
BITMAP
05AF80
A55000
000000
FFE900
ENDCHAR
STARTCHAR greater
ENCODING 62
SWIDTH 533 0
DWIDTH 9 0
BBX 7 8 1 1
BITMAP
4000
2400
0640
00A0
0024
0090
0600
2400
ENDCHAR
STARTCHAR question
ENCODING 63
SWIDTH 564 0
DWIDTH 9 0
BBX 9 15 0 -2
BITMAP
06F800
281F00
700B40
B40B80
BC0B40
BD1F00
3D7D00
01E000
064000
080000
140000
0E0000
000000
0B0000
070000
ENDCHAR
STARTCHAR at
ENCODING 64
SWIDTH 898 0
DWIDTH 14 0
BBX 14 16 0 -5
BITMAP
001BE800
01E41B00
06000180
08000090
146FB420
20E1F420
22C0B420
13807420
53807020
13C0B450
21E1B880
207F1F40
1402C000
0801D000
0741D000
00BE4000
ENDCHAR
STARTCHAR A
ENCODING 65
SWIDTH 784 0
DWIDTH 13 0
BBX 13 15 0 -2
BITMAP
00680000
07FD0000
002E0000
005F0000
008B4000
00878000
0183C000
02BBD000
0207E000
0501F000
0C00F400
FD00BC00
16007E00
00007F80
00029000
ENDCHAR
STARTCHAR B
ENCODING 66
SWIDTH 685 0
DWIDTH 11 0
BBX 11 17 0 -3
BITMAP
55BF40
1F07D0
0B02D0
0702C0
070240
075900
07EF80
0741E0
0740B4
074078
074078
078078
0780B4
0BD1E0
0FFF40
640000
400000
ENDCHAR
STARTCHAR C
ENCODING 67
SWIDTH 742 0
DWIDTH 12 0
BBX 12 15 0 -2
BITMAP
000004
000008
01BFB8
0B8078
2D001C
7C0004
B80000
F40000
F80000
F80001
BC0001
7D0001
2F0008
0BD064
01BF90
ENDCHAR
STARTCHAR D
ENCODING 68
SWIDTH 726 0
DWIDTH 12 0
BBX 12 13 0 -3
BITMAP
6ABF90
2F42F4
0E007C
0A003D
0A003D
0B003D
0B003C
0B0078
0B81E0
0FFE40
1E4000
340000
800000
ENDCHAR
STARTCHAR E
ENCODING 69
SWIDTH 557 0
DWIDTH 9 0
BBX 9 15 0 -2
BITMAP
556B00
3E0200
2E0100
1E0000
1E0000
0E1000
0FF000
0B2000
0B1000
0B0000
070000
070040
074180
BFEF80
001540
ENDCHAR
STARTCHAR F
ENCODING 70
SWIDTH 533 0
DWIDTH 9 0
BBX 9 14 0 -1
BITMAP
001680
6A4180
1F4140
0F4140
0B4000
0B4400
076000
07F000
076000
035000
034000
034000
078000
7AE000
ENDCHAR
STARTCHAR G
ENCODING 71
SWIDTH 750 0
DWIDTH 12 0
BBX 12 12 0 0
BITMAP
000002
01BE09
0B41B8
2D0034
780020
B80010
F40059
F40FF8
B80074
7C0078
2F41A8
06FE00
ENDCHAR
STARTCHAR H
ENCODING 72
SWIDTH 743 0
DWIDTH 12 0
BBX 12 17 0 -3
BITMAP
540000
1FF400
0F401A
0B0BF8
0B00B4
0B0074
0B0074
0B00B4
0BFEF4
0B4074
0F0074
0F0034
0F0034
0F0074
0F07FD
7F8000
404000
ENDCHAR
STARTCHAR I
ENCODING 73
SWIDTH 438 0
DWIDTH 7 0
BBX 9 16 -1 -3
BITMAP
6AAF80
07F400
03E000
02D000
02D000
02C000
02C000
02C000
028000
028000
028000
028000
028000
038000
0BF800
640000
ENDCHAR
STARTCHAR J
ENCODING 74
SWIDTH 628 0
DWIDTH 10 0
BBX 11 19 0 -4
BITMAP
000004
0005B8
01FF80
002F40
000F00
000B00
000B00
000B00
000B00
000B00
000B00
000A00
000A00
000D00
7D1C00
BE2800
C03400
91E000
2F4000
ENDCHAR
STARTCHAR K
ENCODING 75
SWIDTH 866 0
DWIDTH 14 0
BBX 15 15 0 -1
BITMAP
01924000
BF42FD00
1F018000
0E020000
0F080000
0F340000
0FB80000
0F3D0000
0B1E0050
0B0B4020
0B03D024
0B01F820
0B402F90
2FD00000
00500000
ENDCHAR
STARTCHAR L
ENCODING 76
SWIDTH 660 0
DWIDTH 11 0
BBX 11 13 0 0
BITMAP
500000
6FFC00
07D000
07C000
07C000
03C000
038000
038040
038050
038020
0780B0
2FFFF4
140000
ENDCHAR
STARTCHAR M
ENCODING 77
SWIDTH 1089 0
DWIDTH 17 0
BBX 18 13 0 -1
BITMAP
0000002F40
0100003800
02F800B000
00AD00F400
009F417400
005BC13800
0053E83800
0051F82C00
0040F01D00
0080601E00
B040001F40
FE00002FE0
7D00009000
ENDCHAR
STARTCHAR N
ENCODING 78
SWIDTH 799 0
DWIDTH 13 0
BBX 13 17 0 -4
BITMAP
00000040
FF40FF80
0FD01C00
0AF40800
08BC0800
083E0800
081F8800
080BE800
0802F800
0800F400
08007400
08001400
08000000
08000000
1D000000
BF800000
01400000
ENDCHAR
STARTCHAR O
ENCODING 79
SWIDTH 747 0
DWIDTH 12 0
BBX 12 12 0 0
BITMAP
02FE40
1E06E0
3800B8
74003D
B4002E
F0002E
F0001E
B4001E
78002D
3D0038
1F41F0
02BE40
ENDCHAR
STARTCHAR P
ENCODING 80
SWIDTH 623 0
DWIDTH 10 0
BBX 10 14 0 -2
BITMAP
FFFF80
0BD2E0
0380F0
0380F0
0380E0
0382D0
03FE40
038000
038000
038000
078000
07C000
0BD000
6FF900
ENDCHAR
STARTCHAR Q
ENCODING 81
SWIDTH 804 0
DWIDTH 13 0
BBX 19 19 0 -7
BITMAP
01BF900000
0A41F80000
2C003E0000
74001F0000
B0000B4000
F0000B8000
F000078000
B000078000
B407E74000
7C083F0000
2E041D0000
0B947E0000
01BF9F0000
00000B4000
0000078000
000007C004
000003E010
000001F460
0000006F80
ENDCHAR
STARTCHAR R
ENCODING 82
SWIDTH 869 0
DWIDTH 14 0
BBX 15 12 0 -1
BITMAP
FFFF4000
1F82D000
0B41E000
0741E000
0742D000
074B4000
03FE0000
034F0000
034B8004
0783D004
7FD1F420
00102FD0
ENDCHAR
STARTCHAR S
ENCODING 83
SWIDTH 517 0
DWIDTH 8 0
BBX 9 15 0 -2
BITMAP
000100
02F500
0B0A00
0E0200
0F0100
0B8000
02D000
00F400
007C00
401E00
800F40
900B40
B00B40
A91E00
42F800
ENDCHAR
STARTCHAR T
ENCODING 84
SWIDTH 659 0
DWIDTH 11 0
BBX 11 17 0 -3
BITMAP
B90000
BFFFFC
601C1C
501C08
101C04
101C00
002C00
002C00
002C00
002C00
002C00
002C00
003D00
007E00
00BFF0
029000
040000
ENDCHAR
STARTCHAR U
ENCODING 85
SWIDTH 690 0
DWIDTH 11 0
BBX 12 12 0 1
BITMAP
001400
16F400
FFC000
1F8BAA
0F40B0
0F4020
0F4020
0F4020
0B4020
078050
02E180
00BE00
ENDCHAR
STARTCHAR V
ENCODING 86
SWIDTH 798 0
DWIDTH 13 0
BBX 14 12 0 0
BITMAP
00680000
BFD00060
07D006D0
01E0BF40
00F40900
00780800
003D0400
001F2000
000FD000
000BC000
00038000
00014000
ENDCHAR
STARTCHAR W
ENCODING 87
SWIDTH 1120 0
DWIDTH 18 0
BBX 20 14 0 -1
BITMAP
0000000940
00000006FE
00400000E0
0240000080
6F00000140
5F00800200
0B41E00500
0782740800
03D53C0400
02E82E2000
01F01FA000
00E00BC000
0040078000
0000020000
ENDCHAR
STARTCHAR X
ENCODING 88
SWIDTH 868 0
DWIDTH 14 0
BBX 14 14 0 -1
BITMAP
00590000
FFF80000
06F40400
00BC0780
003D0900
001F6400
000BD000
000BD000
0014F000
00607400
01C02C00
7FC01E00
01A1FF90
00000010
ENDCHAR
STARTCHAR Y
ENCODING 89
SWIDTH 796 0
DWIDTH 13 0
BBX 14 16 0 -2
BITMAP
01A00000
BF800500
1F400BF0
03D00900
00F42400
007DA000
001F8000
000F4000
000B0000
000B0000
000B0000
000B0000
000F4000
001F4000
00FFD000
00015000
ENDCHAR
STARTCHAR Z
ENCODING 90
SWIDTH 627 0
DWIDTH 10 0
BBX 11 14 0 -2
BITMAP
240500
3FFD00
347C00
10B800
40B400
00F000
01E000
02D000
038010
074010
070020
0A00B0
0E6BF4
1E9000
ENDCHAR
STARTCHAR bracketleft
ENCODING 91
SWIDTH 344 0
DWIDTH 6 0
BBX 5 16 0 -3
BITMAP
1E40
2C00
3800
3400
3400
7400
7400
7400
B400
B000
B000
B000
B000
B400
B400
7FC0
ENDCHAR
STARTCHAR backslash
ENCODING 92
SWIDTH 347 0
DWIDTH 6 0
BBX 6 17 0 -2
BITMAP
8000
8000
5000
2000
2000
1400
0400
0800
0800
0500
0200
0200
0140
0080
0080
0080
0050
ENDCHAR
STARTCHAR bracketright
ENCODING 93
SWIDTH 334 0
DWIDTH 5 0
BBX 5 15 0 -3
BITMAP
0100
2F40
0740
0740
0780
0780
0780
0780
03C0
03C0
03C0
03C0
07C0
0A40
6000
ENDCHAR
STARTCHAR asciicircum
ENCODING 94
SWIDTH 658 0
DWIDTH 11 0
BBX 9 4 1 9
BITMAP
024000
0BE000
69B900
D01B80
ENDCHAR
STARTCHAR underscore
ENCODING 95
SWIDTH 678 0
DWIDTH 11 0
BBX 9 2 1 -6
BITMAP
5AAFC0
550000
ENDCHAR
STARTCHAR grave
ENCODING 96
SWIDTH 278 0
DWIDTH 4 0
BBX 3 3 1 12
BITMAP
D0
70
14
ENDCHAR
STARTCHAR a
ENCODING 97
SWIDTH 527 0
DWIDTH 8 0
BBX 9 11 0 -1
BITMAP
1B8000
24A000
347400
2D7400
003800
1FF800
743C00
A02C00
B46D00
2E5E40
000B80
ENDCHAR
STARTCHAR b
ENCODING 98
SWIDTH 582 0
DWIDTH 9 0
BBX 11 18 -2 0
BITMAP
004000
064000
7F8000
078000
038000
028000
028000
028000
028000
02C000
02CBE0
02D0B8
01C03C
01D03C
01D03C
01E0B4
02FFD0
0E5000
ENDCHAR
STARTCHAR c
ENCODING 99
SWIDTH 437 0
DWIDTH 7 0
BBX 7 9 0 1
BITMAP
0BE0
24F4
60B0
A000
A014
A008
7008
3814
0BD0
ENDCHAR
STARTCHAR d
ENCODING 100
SWIDTH 523 0
DWIDTH 8 0
BBX 9 15 0 1
BITMAP
001900
00FD00
002D00
002D00
001D00
001C00
001C00
001C00
001C00
1BFC00
781C00
B41C00
B41C00
782D00
1FFB40
ENDCHAR
STARTCHAR e
ENCODING 101
SWIDTH 434 0
DWIDTH 7 0
BBX 7 9 0 1
BITMAP
07E0
2C38
7428
B074
BFD0
B404
7808
3D14
0BE0
ENDCHAR
STARTCHAR f
ENCODING 102
SWIDTH 299 0
DWIDTH 5 0
BBX 9 21 -1 -3
BITMAP
006E00
009240
014280
021F40
031E00
030000
0B0400
7FE400
074000
070000
070000
074000
074000
074000
074000
074000
074000
074000
078000
0BF400
240000
ENDCHAR
STARTCHAR g
ENCODING 103
SWIDTH 567 0
DWIDTH 9 0
BBX 10 16 0 -6
BITMAP
000780
0016D0
1BF1D0
3D2C00
781D00
781D00
3D2C00
1FE400
180000
0BE400
281F00
B00740
F00380
F00340
B81900
2FE400
ENDCHAR
STARTCHAR h
ENCODING 104
SWIDTH 566 0
DWIDTH 9 0
BBX 10 17 -1 0
BITMAP
008000
0B8000
7F4000
034000
034000
034000
034000
030000
030000
070000
072E00
078740
074380
0B0380
0A0380
0F0380
BFCBF0
ENDCHAR
STARTCHAR i
ENCODING 105
SWIDTH 301 0
DWIDTH 5 0
BBX 5 11 0 1
BITMAP
1D00
1D00
0600
BE00
2D00
1D00
1D00
1C00
1C00
2D00
BF40
ENDCHAR
STARTCHAR j
ENCODING 106
SWIDTH 367 0
DWIDTH 6 0
BBX 8 18 -2 -8
BITMAP
0070
0070
0004
06FC
00BC
003D
002D
001D
000E
000E
000E
000D
2D0D
BE0C
A41C
8028
6060
2F80
ENDCHAR
STARTCHAR k
ENCODING 107
SWIDTH 567 0
DWIDTH 9 0
BBX 10 18 -1 -2
BITMAP
160000
FF0000
0B0000
070000
070000
070000
070000
071400
071F80
070900
076000
07F000
077410
036810
035D20
0787D0
07C000
2EB800
ENDCHAR
STARTCHAR l
ENCODING 108
SWIDTH 354 0
DWIDTH 6 0
BBX 7 15 -1 0
BITMAP
0040
0740
2F40
AB40
0780
0780
0380
0380
0380
0280
02C0
02C0
02C0
02D0
0FF8
ENDCHAR
STARTCHAR m
ENCODING 109
SWIDTH 708 0
DWIDTH 11 0
BBX 11 7 0 1
BITMAP
080000
6DF6E0
1E3CB4
0D3874
0DBD74
7F44B4
000018
ENDCHAR
STARTCHAR n
ENCODING 110
SWIDTH 584 0
DWIDTH 9 0
BBX 8 10 1 0
BITMAP
2000
B1B8
752D
380E
380E
280E
280D
181D
1CBD
BE16
ENDCHAR
STARTCHAR o
ENCODING 111
SWIDTH 503 0
DWIDTH 8 0
BBX 8 8 0 1
BITMAP
0BE0
2D2C
741D
B40E
B40E
780D
2D1C
0BE0
ENDCHAR
STARTCHAR p
ENCODING 112
SWIDTH 509 0
DWIDTH 8 0
BBX 8 16 0 -7
BITMAP
1900
6DB8
0E1E
0D0F
0D0A
0D0E
0E1D
0FF4
0D00
0D00
0D00
1E00
1E00
1F00
7F80
0040
ENDCHAR
STARTCHAR q
ENCODING 113
SWIDTH 505 0
DWIDTH 8 0
BBX 8 15 0 -7
BITMAP
1FB8
7878
B038
B038
7878
2FB8
0038
0038
0038
0038
0038
0038
0078
03FC
001B
ENDCHAR
STARTCHAR r
ENCODING 114
SWIDTH 414 0
DWIDTH 7 0
BBX 8 11 0 0
BITMAP
007D
088A
BD2D
1E00
1E00
0E00
0E00
0F00
0F40
0FD0
6400
ENDCHAR
STARTCHAR s
ENCODING 115
SWIDTH 482 0
DWIDTH 8 0
BBX 8 13 0 -2
BITMAP
0004
02E8
0A18
0D04
0B04
0280
00F0
0078
041D
240E
B40E
092D
02F4
ENDCHAR
STARTCHAR t
ENCODING 116
SWIDTH 434 0
DWIDTH 7 0
BBX 7 13 0 0
BITMAP
0080
0280
0740
BFF0
0F40
1E00
2D00
2C00
2C00
2C28
2D18
1E14
07E0
ENDCHAR
STARTCHAR u
ENCODING 117
SWIDTH 744 0
DWIDTH 12 0
BBX 12 9 0 0
BITMAP
000FD0
1901D0
BE00D0
0A00D0
0B00E0
0701A0
0741BE
03C114
01F800
ENDCHAR
STARTCHAR v
ENCODING 118
SWIDTH 600 0
DWIDTH 10 0
BBX 10 10 0 0
BITMAP
024000
6F0000
0F0BD0
0B4200
038200
02D100
01E400
00B800
007400
002000
ENDCHAR
STARTCHAR w
ENCODING 119
SWIDTH 745 0
DWIDTH 12 0
BBX 12 8 0 0
BITMAP
01001A
1A0818
BE0E10
1F1F20
0F67A0
07D2D0
038080
014000
ENDCHAR
STARTCHAR x
ENCODING 120
SWIDTH 548 0
DWIDTH 9 0
BBX 9 10 0 0
BITMAP
019000
FF4000
1F5F80
079800
02F000
01E000
01F000
067800
393F40
019000
ENDCHAR
STARTCHAR y
ENCODING 121
SWIDTH 659 0
DWIDTH 11 0
BBX 11 15 0 -7
BITMAP
018000
1A0FF4
BD02E0
2D01D0
1E01D0
0E02D0
0B86D0
02F5C0
000180
000280
000240
078300
06C900
082800
07E000
ENDCHAR
STARTCHAR z
ENCODING 122
SWIDTH 460 0
DWIDTH 7 0
BBX 8 10 0 0
BITMAP
6400
BFF4
90A0
40D0
0280
0740
0E01
2D19
7FFD
5000
ENDCHAR
STARTCHAR braceleft
ENCODING 123
SWIDTH 460 0
DWIDTH 7 0
BBX 7 20 0 -5
BITMAP
01F8
0280
0340
0340
0380
03C0
03C0
03C0
0B40
7900
1800
0600
0340
0380
0380
0380
0380
0380
03D4
01B8
ENDCHAR
STARTCHAR bar
ENCODING 124
SWIDTH 368 0
DWIDTH 6 0
BBX 2 17 2 -3
BITMAP
40
80
80
80
40
40
40
40
50
50
50
50
50
10
10
10
10
ENDCHAR
STARTCHAR braceright
ENCODING 125
SWIDTH 476 0
DWIDTH 8 0
BBX 8 17 0 -4
BITMAP
2F40
87C0
03D0
02D0
02D0
01D0
0064
0018
0034
0038
0028
002C
001D
001D
001C
0064
02D0
ENDCHAR
STARTCHAR asciitilde
ENCODING 126
SWIDTH 733 0
DWIDTH 12 0
BBX 10 3 1 3
BITMAP
000020
2F9090
41BF40
ENDCHAR
STARTCHAR nonbreakingspace
ENCODING 160
SWIDTH 270 0
DWIDTH 4 0
BBX 1 1 0 0
BITMAP
00
ENDCHAR
STARTCHAR exclamdown
ENCODING 161
SWIDTH 247 0
DWIDTH 4 0
BBX 2 17 1 -2
BITMAP
E0
E0
00
00
50
50
60
60
A0
B0
B0
B0
F0
F0
F0
F0
A0
ENDCHAR
STARTCHAR cent
ENCODING 162
SWIDTH 799 0
DWIDTH 13 0
BBX 8 14 2 -4
BITMAP
0100
0100
02F8
0F0A
2D0B
784E
7440
7840
3C51
1E15
07F4
0010
0004
0004
ENDCHAR
STARTCHAR sterling
ENCODING 163
SWIDTH 799 0
DWIDTH 13 0
BBX 9 14 2 -2
BITMAP
02F800
0A0E00
1D0E00
2C2E00
2D2D00
1E0000
1F5000
4B8000
03C000
02D000
01D000
2FD040
52E480
7E1F80
ENDCHAR
STARTCHAR currency
ENCODING 164
SWIDTH 732 0
DWIDTH 12 0
BBX 10 11 1 1
BITMAP
000400
000800
9BF800
340A00
500200
800200
900200
641900
2FE600
240180
200010
ENDCHAR
STARTCHAR yen
ENCODING 165
SWIDTH 799 0
DWIDTH 13 0
BBX 12 17 0 -2
BITMAP
001400
7FE01A
0BE0F8
02F020
00F410
007C40
003E40
001F40
000F00
02FFFE
000FF4
01AF00
000F00
000F00
000F40
006FE0
01E400
ENDCHAR
STARTCHAR brokenbar
ENCODING 166
SWIDTH 341 0
DWIDTH 5 0
BBX 1 18 2 -4
BITMAP
40
80
80
80
80
80
40
00
40
40
40
40
40
80
80
80
80
80
ENDCHAR
STARTCHAR section
ENCODING 167
SWIDTH 546 0
DWIDTH 9 0
BBX 7 18 1 -5
BITMAP
0BE0
2838
703C
7438
7D00
2F40
97E0
D0B8
E02C
F80C
7E14
0BE0
01F0
0024
0018
1D04
2E10
0B90
ENDCHAR
STARTCHAR dieresis
ENCODING 168
SWIDTH 393 0
DWIDTH 6 0
BBX 4 2 1 11
BITMAP
77
77
ENDCHAR
STARTCHAR copyright
ENCODING 169
SWIDTH 1023 0
DWIDTH 16 0
BBX 15 15 1 -2
BITMAP
006FE400
07901B00
180001C0
20004060
906F4024
81D14014
82C04018
82800018
82C04014
81E08024
806E0020
60000090
24000280
0A406D00
01BFA000
ENDCHAR
STARTCHAR ordfeminine
ENCODING 170
SWIDTH 558 0
DWIDTH 9 0
BBX 7 8 1 5
BITMAP
6E00
D340
D280
D280
2FC0
A1C4
D2D8
7DB8
ENDCHAR
STARTCHAR guillemotleft
ENCODING 171
SWIDTH 608 0
DWIDTH 10 0
BBX 8 14 1 -4
BITMAP
0001
0001
0085
0148
0718
2D34
B8B8
BC3C
2E1D
0B4A
0282
00D2
0060
0010
ENDCHAR
STARTCHAR logicalnot
ENCODING 172
SWIDTH 616 0
DWIDTH 10 0
BBX 8 4 1 3
BITMAP
FFAB
0002
0002
0001
ENDCHAR
STARTCHAR uni00AD
ENCODING 173
SWIDTH 436 0
DWIDTH 7 0
BBX 5 1 1 3
BITMAP
BF80
ENDCHAR
STARTCHAR registered
ENCODING 174
SWIDTH 1048 0
DWIDTH 17 0
BBX 16 15 0 -4
BITMAP
001BF900
01E40590
06000024
18BFF408
242C3C01
201C2C01
201C7801
601FD001
201DD041
302DB481
25FFAF41
1C000008
06000024
01E405D0
001BF900
ENDCHAR
STARTCHAR macron
ENCODING 175
SWIDTH 382 0
DWIDTH 6 0
BBX 5 1 1 13
BITMAP
BF40
ENDCHAR
STARTCHAR degree
ENCODING 176
SWIDTH 346 0
DWIDTH 6 0
BBX 4 4 1 11
BITMAP
78
86
86
B8
ENDCHAR
STARTCHAR plusminus
ENCODING 177
SWIDTH 580 0
DWIDTH 9 0
BBX 8 6 1 2
BITMAP
0140
0240
BFE9
0100
0100
FAA4
ENDCHAR
STARTCHAR twosuperior
ENCODING 178
SWIDTH 365 0
DWIDTH 6 0
BBX 5 9 1 5
BITMAP
2E00
4B40
0740
0700
1900
9000
A140
2D00
0400
ENDCHAR
STARTCHAR threesuperior
ENCODING 179
SWIDTH 371 0
DWIDTH 6 0
BBX 6 8 0 6
BITMAP
7F00
1500
0900
02C0
40E0
40E0
51D0
2F40
ENDCHAR
STARTCHAR acute
ENCODING 180
SWIDTH 234 0
DWIDTH 4 0
BBX 2 3 1 12
BITMAP
20
90
80
ENDCHAR
STARTCHAR mu
ENCODING 181
SWIDTH 634 0
DWIDTH 10 0
BBX 10 14 0 -6
BITMAP
700000
701D00
700D00
740D00
780E10
7D1E10
76E760
7401E0
340000
380000
380000
380000
3C0000
3C0000
ENDCHAR
STARTCHAR paragraph
ENCODING 182
SWIDTH 707 0
DWIDTH 11 0
BBX 12 19 0 -6
BITMAP
000164
0AFFC0
7FD280
BFC280
FFC280
FFC240
7FC240
1BC280
02C280
01C280
01C280
01C280
01C2C0
01D2C0
00D2E0
01D2FD
01D000
07D000
290000
ENDCHAR
STARTCHAR periodcentered
ENCODING 183
SWIDTH 238 0
DWIDTH 4 0
BBX 3 3 0 4
BITMAP
28
7C
28
ENDCHAR
STARTCHAR cedilla
ENCODING 184
SWIDTH 332 0
DWIDTH 5 0
BBX 4 5 1 -4
BITMAP
10
24
1D
4D
B8
ENDCHAR
STARTCHAR onesuperior
ENCODING 185
SWIDTH 336 0
DWIDTH 5 0
BBX 5 7 0 7
BITMAP
0200
0B00
1700
0700
0700
6F40
1680
ENDCHAR
STARTCHAR ordmasculine
ENCODING 186
SWIDTH 503 0
DWIDTH 8 0
BBX 8 7 0 5
BITMAP
0BE0
207C
501D
600A
7009
291C
0BE4
ENDCHAR
STARTCHAR guillemotright
ENCODING 187
SWIDTH 778 0
DWIDTH 12 0
BBX 11 14 1 -4
BITMAP
004000
405000
802400
600E00
2E4390
07F4F4
01E2E0
038B40
091D00
183800
207000
509000
408000
008000
ENDCHAR
STARTCHAR onequarter
ENCODING 188
SWIDTH 876 0
DWIDTH 14 0
BBX 14 16 0 -1
BITMAP
00000100
02000500
0B001800
17002000
07009000
07018000
6F420400
16881800
00242800
00605800
00805C40
02411D80
0503BF80
08010E00
20003FE0
00001000
ENDCHAR
STARTCHAR onehalf
ENCODING 189
SWIDTH 762 0
DWIDTH 12 0
BBX 12 16 0 -1
BITMAP
000001
020005
0B0018
170020
070090
070180
6F4200
1688B8
00251D
00600D
00801C
024024
050180
080295
200078
000010
ENDCHAR
STARTCHAR threequarters
ENCODING 190
SWIDTH 922 0
DWIDTH 15 0
BBX 15 16 0 -1
BITMAP
00000040
7F000240
15000600
09000800
02C02000
40E05000
40E18500
51D20900
2F490D00
00141A00
00201A10
00804650
0141EFD0
06004780
08001FF4
00000400
ENDCHAR
STARTCHAR questiondown
ENCODING 191
SWIDTH 571 0
DWIDTH 9 0
BBX 9 15 0 -3
BITMAP
00E000
01F000
00E000
000000
004000
001000
009000
028000
0B2E00
2D3F80
7C1F80
BC0380
7D0240
3E4600
0BF800
ENDCHAR
STARTCHAR Agrave
ENCODING 192
SWIDTH 784 0
DWIDTH 13 0
BBX 13 19 0 -2
BITMAP
06000000
02800000
00900000
00000000
00680000
07FD0000
002E0000
005F0000
008B4000
00878000
0183C000
02BBD000
0207E000
0501F000
0C00F400
FD00BC00
16007E00
00007F80
00029000
ENDCHAR
STARTCHAR Aacute
ENCODING 193
SWIDTH 784 0
DWIDTH 13 0
BBX 13 19 0 -2
BITMAP
00080000
00180000
00200000
00000000
00680000
07FD0000
002E0000
005F0000
008B4000
00878000
0183C000
02BBD000
0207E000
0501F000
0C00F400
FD00BC00
16007E00
00007F80
00029000
ENDCHAR
STARTCHAR Acircumflex
ENCODING 194
SWIDTH 784 0
DWIDTH 13 0
BBX 13 19 0 -2
BITMAP
00180000
006A4000
0142C000
00000000
00680000
07FD0000
002E0000
005F0000
008B4000
00878000
0183C000
02BBD000
0207E000
0501F000
0C00F400
FD00BC00
16007E00
00007F80
00029000
ENDCHAR
STARTCHAR Atilde
ENCODING 195
SWIDTH 784 0
DWIDTH 13 0
BBX 13 19 0 -2
BITMAP
01D00000
01754000
001E0000
00000000
00680000
07FD0000
002E0000
005F0000
008B4000
00878000
0183C000
02BBD000
0207E000
0501F000
0C00F400
FD00BC00
16007E00
00007F80
00029000
ENDCHAR
STARTCHAR Adieresis
ENCODING 196
SWIDTH 784 0
DWIDTH 13 0
BBX 13 18 0 -2
BITMAP
01E70000
01E70000
00000000
00680000
07FD0000
002E0000
005F0000
008B4000
00878000
0183C000
02BBD000
0207E000
0501F000
0C00F400
FD00BC00
16007E00
00007F80
00029000
ENDCHAR
STARTCHAR Aring
ENCODING 197
SWIDTH 784 0
DWIDTH 13 0
BBX 13 20 0 -2
BITMAP
007D0000
00820000
00820000
007D0000
00000000
00680000
07FD0000
002E0000
005F0000
008B4000
00878000
0183C000
02BBD000
0207E000
0501F000
0C00F400
FD00BC00
16007E00
00007F80
00029000
ENDCHAR
STARTCHAR AE
ENCODING 198
SWIDTH 1172 0
DWIDTH 19 0
BBX 19 16 0 -3
BITMAP
0000001A00
000016FE00
000BFE4200
00009D0100
00005D0000
00005E0400
00010E1C00
00010FFC00
00041F0414
000FFF4114
00180F4024
00200B8038
00900BC1F8
01800BE900
07400E4000
FFE0240000
ENDCHAR
STARTCHAR Ccedilla
ENCODING 199
SWIDTH 742 0
DWIDTH 12 0
BBX 12 20 0 -7
BITMAP
000004
000008
01BFB8
0B8078
2D001C
7C0004
B80000
F40000
F80000
F80001
BC0001
7D0001
2F0008
0BD064
01BF90
000400
000E00
000340
001340
002E00
ENDCHAR
STARTCHAR Egrave
ENCODING 200
SWIDTH 557 0
DWIDTH 9 0
BBX 9 19 0 -2
BITMAP
280000
090000
020000
000000
556B00
3E0200
2E0100
1E0000
1E0000
0E1000
0FF000
0B2000
0B1000
0B0000
070000
070040
074180
BFEF80
001540
ENDCHAR
STARTCHAR Eacute
ENCODING 201
SWIDTH 557 0
DWIDTH 9 0
BBX 9 19 0 -2
BITMAP
002400
006000
008000
000000
556B00
3E0200
2E0100
1E0000
1E0000
0E1000
0FF000
0B2000
0B1000
0B0000
070000
070040
074180
BFEF80
001540
ENDCHAR
STARTCHAR Ecircumflex
ENCODING 202
SWIDTH 557 0
DWIDTH 9 0
BBX 9 19 0 -2
BITMAP
009000
02B400
041A00
000000
556B00
3E0200
2E0100
1E0000
1E0000
0E1000
0FF000
0B2000
0B1000
0B0000
070000
070040
074180
BFEF80
001540
ENDCHAR
STARTCHAR Edieresis
ENCODING 203
SWIDTH 557 0
DWIDTH 9 0
BBX 9 18 0 -2
BITMAP
0B3800
0B3400
000000
556B00
3E0200
2E0100
1E0000
1E0000
0E1000
0FF000
0B2000
0B1000
0B0000
070000
070040
074180
BFEF80
001540
ENDCHAR
STARTCHAR Igrave
ENCODING 204
SWIDTH 438 0
DWIDTH 7 0
BBX 9 20 -1 -3
BITMAP
060000
028000
008000
000000
6AAF80
07F400
03E000
02D000
02D000
02C000
02C000
02C000
028000
028000
028000
028000
028000
038000
0BF800
640000
ENDCHAR
STARTCHAR Iacute
ENCODING 205
SWIDTH 438 0
DWIDTH 7 0
BBX 9 20 -1 -3
BITMAP
000800
002800
002000
000000
6AAF80
07F400
03E000
02D000
02D000
02C000
02C000
02C000
028000
028000
028000
028000
028000
038000
0BF800
640000
ENDCHAR
STARTCHAR Icircumflex
ENCODING 206
SWIDTH 438 0
DWIDTH 7 0
BBX 9 21 -1 -3
BITMAP
00A000
01A900
050B00
000000
000000
6AAF80
07F400
03E000
02D000
02D000
02C000
02C000
02C000
028000
028000
028000
028000
028000
038000
0BF800
640000
ENDCHAR
STARTCHAR Idieresis
ENCODING 207
SWIDTH 438 0
DWIDTH 7 0
BBX 9 19 -1 -3
BITMAP
076C00
076800
000000
6AAF80
07F400
03E000
02D000
02D000
02C000
02C000
02C000
028000
028000
028000
028000
028000
038000
0BF800
640000
ENDCHAR
STARTCHAR Eth
ENCODING 208
SWIDTH 730 0
DWIDTH 12 0
BBX 12 13 0 -4
BITMAP
2ABF90
1B46F4
0740BD
07407E
07403E
6FD03E
0B403E
0B407D
0B40B8
0B86D0
0FF900
290000
400000
ENDCHAR
STARTCHAR Ntilde
ENCODING 209
SWIDTH 799 0
DWIDTH 13 0
BBX 13 20 0 -4
BITMAP
001D0000
00174400
0001F000
00000040
FF40FF80
0FD01C00
0AF40800
08BC0800
083E0800
081F8800
080BE800
0802F800
0800F400
08007400
08001400
08000000
08000000
1D000000
BF800000
01400000
ENDCHAR
STARTCHAR Ograve
ENCODING 210
SWIDTH 747 0
DWIDTH 12 0
BBX 12 17 0 0
BITMAP
034000
01C000
005000
000000
000000
02FE40
1E06E0
3800B8
74003D
B4002E
F0002E
F0001E
B4001E
78002D
3D0038
1F41F0
02BE40
ENDCHAR
STARTCHAR Oacute
ENCODING 211
SWIDTH 747 0
DWIDTH 12 0
BBX 12 16 0 0
BITMAP
000800
001800
002000
000000
02FE40
1E06E0
3800B8
74003D
B4002E
F0002E
F0001E
B4001E
78002D
3D0038
1F41F0
02BE40
ENDCHAR
STARTCHAR Ocircumflex
ENCODING 212
SWIDTH 747 0
DWIDTH 12 0
BBX 12 16 0 0
BITMAP
002400
00AD00
010680
000000
02FE40
1E06E0
3800B8
74003D
B4002E
F0002E
F0001E
B4001E
78002D
3D0038
1F41F0
02BE40
ENDCHAR
STARTCHAR Otilde
ENCODING 213
SWIDTH 747 0
DWIDTH 12 0
BBX 12 16 0 0
BITMAP
01E000
013840
000B40
000000
02FE40
1E06E0
3800B8
74003D
B4002E
F0002E
F0001E
B4001E
78002D
3D0038
1F41F0
02BE40
ENDCHAR
STARTCHAR Odieresis
ENCODING 214
SWIDTH 747 0
DWIDTH 12 0
BBX 12 16 0 0
BITMAP
01D700
01D700
000000
000000
02FE40
1E06E0
3800B8
74003D
B4002E
F0002E
F0001E
B4001E
78002D
3D0038
1F41F0
02BE40
ENDCHAR
STARTCHAR multiply
ENCODING 215
SWIDTH 541 0
DWIDTH 9 0
BBX 7 10 1 0
BITMAP
0004
0014
4060
2080
0A00
0A40
1860
2000
9000
4000
ENDCHAR
STARTCHAR Oslash
ENCODING 216
SWIDTH 747 0
DWIDTH 12 0
BBX 12 15 0 -1
BITMAP
000001
000008
02FE64
1E06F0
3800F8
74017D
B4062E
F0082E
F0201E
B4901E
79402D
3E0038
1F41F0
1ABE40
200000
ENDCHAR
STARTCHAR Ugrave
ENCODING 217
SWIDTH 690 0
DWIDTH 11 0
BBX 12 16 0 1
BITMAP
00A000
003400
000800
000000
001400
16F400
FFC000
1F8BAA
0F40B0
0F4020
0F4020
0F4020
0B4020
078050
02E180
00BE00
ENDCHAR
STARTCHAR Uacute
ENCODING 218
SWIDTH 690 0
DWIDTH 11 0
BBX 12 14 0 1
BITMAP
000024
000060
001480
16F400
FFC000
1F8BAA
0F40B0
0F4020
0F4020
0F4020
0B4020
078050
02E180
00BE00
ENDCHAR
STARTCHAR Ucircumflex
ENCODING 219
SWIDTH 690 0
DWIDTH 11 0
BBX 12 15 0 1
BITMAP
000900
002B80
0040A0
001400
16F400
FFC000
1F8BAA
0F40B0
0F4020
0F4020
0F4020
0B4020
078050
02E180
00BE00
ENDCHAR
STARTCHAR Udieresis
ENCODING 220
SWIDTH 690 0
DWIDTH 11 0
BBX 12 15 0 1
BITMAP
0075C0
007680
000000
001400
16F400
FFC000
1F8BAA
0F40B0
0F4020
0F4020
0F4020
0B4020
078050
02E180
00BE00
ENDCHAR
STARTCHAR Yacute
ENCODING 221
SWIDTH 796 0
DWIDTH 13 0
BBX 14 19 0 -2
BITMAP
00002000
00006000
00008000
01A00000
BF800500
1F400BF0
03D00900
00F42400
007DA000
001F8000
000F4000
000B0000
000B0000
000B0000
000B0000
000F4000
001F4000
00FFD000
00015000
ENDCHAR
STARTCHAR Thorn
ENCODING 222
SWIDTH 479 0
DWIDTH 8 0
BBX 8 17 0 -2
BITMAP
7FC0
1E00
0D00
0FF8
0D2E
0C0F
0C0F
0D2E
0FF8
1D00
1D00
1D00
1D00
1D00
2D00
7F40
0040
ENDCHAR
STARTCHAR germandbls
ENCODING 223
SWIDTH 591 0
DWIDTH 9 0
BBX 10 17 0 -2
BITMAP
2F4000
61D000
80D000
C0A000
C09000
908000
910000
ABE400
707E00
700F80
3407C0
3802D0
2C01C0
2D01C0
1EB180
397E00
900000
ENDCHAR
STARTCHAR agrave
ENCODING 224
SWIDTH 527 0
DWIDTH 8 0
BBX 9 15 0 -1
BITMAP
600000
280000
090000
000000
1B8000
24A000
347400
2D7400
003800
1FF800
743C00
A02C00
B46D00
2E5E40
000B80
ENDCHAR
STARTCHAR aacute
ENCODING 225
SWIDTH 527 0
DWIDTH 8 0
BBX 9 15 0 -1
BITMAP
006000
00C000
014000
000000
1B8000
24A000
347400
2D7400
003800
1FF800
743C00
A02C00
B46D00
2E5E40
000B80
ENDCHAR
STARTCHAR acircumflex
ENCODING 226
SWIDTH 527 0
DWIDTH 8 0
BBX 9 15 0 -1
BITMAP
024000
0AE000
142800
000000
1B8000
24A000
347400
2D7400
003800
1FF800
743C00
A02C00
B46D00
2E5E40
000B80
ENDCHAR
STARTCHAR atilde
ENCODING 227
SWIDTH 527 0
DWIDTH 8 0
BBX 9 14 0 -1
BITMAP
0A0000
128400
00B400
1B8000
24A000
347400
2D7400
003800
1FF800
743C00
A02C00
B46D00
2E5E40
000B80
ENDCHAR
STARTCHAR adieresis
ENCODING 228
SWIDTH 527 0
DWIDTH 8 0
BBX 9 14 0 -1
BITMAP
1DC000
1DC000
000000
1B8000
24A000
347400
2D7400
003800
1FF800
743C00
A02C00
B46D00
2E5E40
000B80
ENDCHAR
STARTCHAR aring
ENCODING 229
SWIDTH 527 0
DWIDTH 8 0
BBX 9 16 0 -1
BITMAP
07D000
086000
082000
07C000
000000
1B8000
24A000
347400
2D7400
003800
1FF800
743C00
A02C00
B46D00
2E5E40
000B80
ENDCHAR
STARTCHAR ae
ENCODING 230
SWIDTH 700 0
DWIDTH 11 0
BBX 11 11 0 -1
BITMAP
0007E0
2E1474
626034
71D074
01D1E0
0BFF80
35D004
A0E008
A0F918
A17FF4
2D1BE0
ENDCHAR
STARTCHAR ccedilla
ENCODING 231
SWIDTH 437 0
DWIDTH 7 0
BBX 7 14 0 -4
BITMAP
0BE0
24F4
60B0
A000
A014
A008
7008
3814
0BD0
0100
02C0
00A0
04A0
0780
ENDCHAR
STARTCHAR egrave
ENCODING 232
SWIDTH 434 0
DWIDTH 7 0
BBX 7 13 0 1
BITMAP
2400
1D00
0600
0000
07E0
2C38
7428
B074
BFD0
B404
7808
3D14
0BE0
ENDCHAR
STARTCHAR eacute
ENCODING 233
SWIDTH 434 0
DWIDTH 7 0
BBX 7 13 0 1
BITMAP
0060
00C0
0140
0000
07E0
2C38
7428
B074
BFD0
B404
7808
3D14
0BE0
ENDCHAR
STARTCHAR ecircumflex
ENCODING 234
SWIDTH 434 0
DWIDTH 7 0
BBX 7 13 0 1
BITMAP
0240
0AE0
1028
0000
07E0
2C38
7428
B074
BFD0
B404
7808
3D14
0BE0
ENDCHAR
STARTCHAR edieresis
ENCODING 235
SWIDTH 434 0
DWIDTH 7 0
BBX 7 12 0 1
BITMAP
0AA0
0AA0
0000
07E0
2C38
7428
B074
BFD0
B404
7808
3D14
0BE0
ENDCHAR
STARTCHAR igrave
ENCODING 236
SWIDTH 301 0
DWIDTH 5 0
BBX 6 13 -1 1
BITMAP
A000
2800
0800
0000
0180
2F80
0B40
0740
0740
0700
0700
0B40
2FD0
ENDCHAR
STARTCHAR iacute
ENCODING 237
SWIDTH 301 0
DWIDTH 5 0
BBX 5 13 0 1
BITMAP
0200
0900
0800
0000
0600
BE00
2D00
1D00
1D00
1C00
1C00
2D00
BF40
ENDCHAR
STARTCHAR icircumflex
ENCODING 238
SWIDTH 301 0
DWIDTH 5 0
BBX 7 13 -1 1
BITMAP
0600
0AD0
5064
0000
0180
2F80
0B40
0740
0740
0700
0700
0B40
2FD0
ENDCHAR
STARTCHAR idieresis
ENCODING 239
SWIDTH 301 0
DWIDTH 5 0
BBX 5 13 0 1
BITMAP
3740
7740
0000
0000
0600
BE00
2D00
1D00
1D00
1C00
1C00
2D00
BF40
ENDCHAR
STARTCHAR eth
ENCODING 240
SWIDTH 476 0
DWIDTH 8 0
BBX 9 14 -1 -2
BITMAP
001000
2F9000
90B400
011C00
010E00
000B00
000700
02FB40
0B0B40
0D0740
0E0340
0E0300
0B8600
01F800
ENDCHAR
STARTCHAR ntilde
ENCODING 241
SWIDTH 584 0
DWIDTH 9 0
BBX 8 13 1 0
BITMAP
0380
04E1
002D
2000
B1B8
752D
380E
380E
280E
280D
181D
1CBD
BE16
ENDCHAR
STARTCHAR ograve
ENCODING 242
SWIDTH 400 0
DWIDTH 6 0
BBX 11 13 0 3
BITMAP
000074
000078
000018
600014
280020
090050
000640
1DF800
74D000
B0B000
A0B000
75F000
2F8000
ENDCHAR
STARTCHAR oacute
ENCODING 243
SWIDTH 400 0
DWIDTH 6 0
BBX 11 13 0 3
BITMAP
000074
000078
000018
005014
00C020
014050
000640
1DF800
74D000
B0B000
A0B000
75F000
2F8000
ENDCHAR
STARTCHAR ocircumflex
ENCODING 244
SWIDTH 400 0
DWIDTH 6 0
BBX 11 13 0 3
BITMAP
000074
000078
000018
024014
0AD020
106850
000640
1DF800
74D000
B0B000
A0B000
75F000
2F8000
ENDCHAR
STARTCHAR otilde
ENCODING 245
SWIDTH 400 0
DWIDTH 6 0
BBX 11 13 0 3
BITMAP
000074
000078
000018
0A0014
128420
00B450
000640
1DF800
74D000
B0B000
A0B000
75F000
2F8000
ENDCHAR
STARTCHAR odieresis
ENCODING 246
SWIDTH 400 0
DWIDTH 6 0
BBX 11 13 0 3
BITMAP
000074
000078
000018
000014
0D9020
0DD050
000640
1DF800
74D000
B0B000
A0B000
75F000
2F8000
ENDCHAR
STARTCHAR divide
ENCODING 247
SWIDTH 592 0
DWIDTH 9 0
BBX 8 7 1 1
BITMAP
0700
0700
0000
FFFE
0000
0740
0740
ENDCHAR
STARTCHAR oslash
ENCODING 248
SWIDTH 396 0
DWIDTH 6 0
BBX 6 9 0 1
BITMAP
0100
1F80
76E0
A5B0
A8B0
79E0
2F80
1400
2000
ENDCHAR
STARTCHAR ugrave
ENCODING 249
SWIDTH 744 0
DWIDTH 12 0
BBX 12 13 0 0
BITMAP
028000
00A000
002000
000000
000FD0
1901D0
BE00D0
0A00D0
0B00E0
0701A0
0741BE
03C114
01F800
ENDCHAR
STARTCHAR uacute
ENCODING 250
SWIDTH 744 0
DWIDTH 12 0
BBX 12 13 0 0
BITMAP
000800
001800
002000
000000
000FD0
1901D0
BE00D0
0A00D0
0B00E0
0701A0
0741BE
03C114
01F800
ENDCHAR
STARTCHAR ucircumflex
ENCODING 251
SWIDTH 744 0
DWIDTH 12 0
BBX 12 13 0 0
BITMAP
006000
01A900
050700
000000
000FD0
1901D0
BE00D0
0A00D0
0B00E0
0701A0
0741BE
03C114
01F800
ENDCHAR
STARTCHAR udieresis
ENCODING 252
SWIDTH 744 0
DWIDTH 12 0
BBX 12 12 0 0
BITMAP
00D900
00D900
000000
000FD0
1901D0
BE00D0
0A00D0
0B00E0
0701A0
0741BE
03C114
01F800
ENDCHAR
STARTCHAR yacute
ENCODING 253
SWIDTH 659 0
DWIDTH 11 0
BBX 11 18 0 -7
BITMAP
000200
000900
000800
018000
1A0FF4
BD02E0
2D01D0
1E01D0
0E02D0
0B86D0
02F5C0
000180
000280
000240
078300
06C900
082800
07E000
ENDCHAR
STARTCHAR thorn
ENCODING 254
SWIDTH 514 0
DWIDTH 8 0
BBX 9 24 -1 -11
BITMAP
060000
BD0000
1C0000
1C0000
0D0000
0D0000
0EF800
0E1F00
0E0B80
0A0780
0A07C0
0A0780
0B4B40
0BBE00
0B0000
0B0000
0B0000
0B0000
0B0000
0B4000
0B4000
0F4000
7F8000
006400
ENDCHAR
STARTCHAR ydieresis
ENCODING 255
SWIDTH 659 0
DWIDTH 11 0
BBX 11 19 0 -7
BITMAP
007700
007700
000000
000000
018000
1A0FF4
BD02E0
2D01D0
1E01D0
0E02D0
0B86D0
02F5C0
000180
000280
000240
078300
06C900
082800
07E000
ENDCHAR
STARTCHAR dotlessi
ENCODING 305
SWIDTH 301 0
DWIDTH 5 0
BBX 5 9 0 1
BITMAP
0600
BE00
2D00
1D00
1D00
1C00
1C00
2D00
BF40
ENDCHAR
STARTCHAR OE
ENCODING 338
SWIDTH 1132 0
DWIDTH 18 0
BBX 18 16 0 -3
BITMAP
0000000740
01BE5FFB40
0F41EB4040
3C007F0000
78002F0000
B4000F0100
F4000F4500
F4000BED00
B8000B4100
7D000F4000
2F001F4000
0BD06B8010
01BE4B8020
00000B81B0
00001FFFF0
0000690000
ENDCHAR
STARTCHAR oe
ENCODING 339
SWIDTH 798 0
DWIDTH 13 0
BBX 13 7 0 2
BITMAP
1F90B900
74B78A00
B03F0A00
B01FF940
B41F0040
3D2B9140
1BD2FD00
ENDCHAR
STARTCHAR circumflex
ENCODING 710
SWIDTH 483 0
DWIDTH 8 0
BBX 6 3 1 11
BITMAP
0900
2B80
50A0
ENDCHAR
STARTCHAR caron
ENCODING 711
SWIDTH 428 0
DWIDTH 7 0
BBX 5 4 1 11
BITMAP
4040
6200
2C00
1400
ENDCHAR
STARTCHAR ring
ENCODING 730
SWIDTH 330 0
DWIDTH 5 0
BBX 4 4 1 13
BITMAP
78
85
85
B8
ENDCHAR
STARTCHAR tilde
ENCODING 732
SWIDTH 433 0
DWIDTH 7 0
BBX 5 3 1 12
BITMAP
B400
5D40
0780
ENDCHAR
STARTCHAR mu.dup1
ENCODING 956
SWIDTH 634 0
DWIDTH 10 0
BBX 10 14 0 -6
BITMAP
700000
701D00
700D00
740D00
780E10
7D1E10
76E760
7401E0
340000
380000
380000
380000
3C0000
3C0000
ENDCHAR
STARTCHAR endash
ENCODING 8211
SWIDTH 436 0
DWIDTH 7 0
BBX 5 1 1 3
BITMAP
BF80
ENDCHAR
STARTCHAR emdash
ENCODING 8212
SWIDTH 651 0
DWIDTH 10 0
BBX 9 2 1 3
BITMAP
16AF40
554000
ENDCHAR
STARTCHAR quoteleft
ENCODING 8216
SWIDTH 287 0
DWIDTH 5 0
BBX 3 5 1 8
BITMAP
14
A0
F0
F4
B4
ENDCHAR
STARTCHAR quoteright
ENCODING 8217
SWIDTH 291 0
DWIDTH 5 0
BBX 3 6 1 7
BITMAP
B4
F8
BC
28
14
20
ENDCHAR
STARTCHAR quotesinglbase
ENCODING 8218
SWIDTH 272 0
DWIDTH 4 0
BBX 3 5 1 -2
BITMAP
B4
F8
74
20
50
ENDCHAR
STARTCHAR quotedblleft
ENCODING 8220
SWIDTH 445 0
DWIDTH 7 0
BBX 6 6 1 7
BITMAP
1400
2040
A240
F3C0
F6D0
B400
ENDCHAR
STARTCHAR quotedblright
ENCODING 8221
SWIDTH 444 0
DWIDTH 7 0
BBX 6 5 1 8
BITMAP
F2C0
F7D0
75C0
2140
5500
ENDCHAR
STARTCHAR quotedblbase
ENCODING 8222
SWIDTH 482 0
DWIDTH 8 0
BBX 6 7 1 -5
BITMAP
B400
F9E0
BAF0
29E0
1490
2080
0140
ENDCHAR
STARTCHAR bullet
ENCODING 8226
SWIDTH 351 0
DWIDTH 6 0
BBX 4 4 1 5
BITMAP
7D
FE
FE
BD
ENDCHAR
STARTCHAR guilsinglleft
ENCODING 8249
SWIDTH 465 0
DWIDTH 7 0
BBX 6 10 1 -1
BITMAP
0040
0140
0200
0D00
7800
F800
2D00
0700
0180
0050
ENDCHAR
STARTCHAR guilsinglright
ENCODING 8250
SWIDTH 449 0
DWIDTH 7 0
BBX 5 10 1 -1
BITMAP
4000
5000
2400
1D00
0B80
0F40
2D00
3400
9000
8000
ENDCHAR
STARTCHAR fraction
ENCODING 8260
SWIDTH 406 0
DWIDTH 7 0
BBX 11 15 -2 0
BITMAP
000014
000020
000080
000140
000200
000800
002400
006000
008000
020000
050000
080000
200000
900000
400000
ENDCHAR
STARTCHAR foursuperior
ENCODING 8308
SWIDTH 473 0
DWIDTH 8 0
BBX 8 10 0 5
BITMAP
0100
0240
0740
0740
1240
12A4
6FF4
02D0
0BFD
0400
ENDCHAR
STARTCHAR Euro
ENCODING 8364
SWIDTH 799 0
DWIDTH 13 0
BBX 14 14 0 -1
BITMAP
00000010
001BE480
00B91B80
02E00340
07C00200
0B810100
0F940000
6F550000
1F900000
AF400400
0B800400
07C00400
01F42400
006F9000
ENDCHAR
STARTCHAR minus
ENCODING 8722
SWIDTH 436 0
DWIDTH 7 0
BBX 5 1 1 3
BITMAP
BF80
ENDCHAR
STARTCHAR f_f
ENCODING 64256
SWIDTH 467 0
DWIDTH 7 0
BBX 10 24 0 -5
BITMAP
01F400
01B800
087400
081F80
0821D0
1897D0
148780
14C000
24C000
28C000
2AF800
79C000
28D000
189000
1CA000
1C7000
1D7400
1D3C00
0E3F40
0E7400
0F4000
0B4000
1FC000
7FF400
ENDCHAR
STARTCHAR .notdef
ENCODING -1
SWIDTH 270 0
DWIDTH 4 0
BBX 4 10 0 0
BITMAP
7E
00
00
00
00
00
00
00
00
7E
ENDCHAR
STARTCHAR .null
ENCODING -1
SWIDTH 0 0
DWIDTH 0 0
BBX 1 1 0 0
BITMAP
00
ENDCHAR
STARTCHAR nonmarkingreturn
ENCODING -1
SWIDTH 270 0
DWIDTH 4 0
BBX 1 1 0 0
BITMAP
00
ENDCHAR
STARTCHAR dieresis.case
ENCODING -1
SWIDTH 393 0
DWIDTH 6 0
BBX 5 2 1 12
BITMAP
E340
E340
ENDCHAR
STARTCHAR o.cmp
ENCODING -1
SWIDTH 400 0
DWIDTH 6 0
BBX 11 13 0 3
BITMAP
000074
000078
000018
000014
000020
000050
000640
1DF800
74D000
B0B000
A0B000
75F000
2F8000
ENDCHAR
STARTCHAR n_n
ENCODING -1
SWIDTH 1024 0
DWIDTH 16 0
BBX 16 11 0 -1
BITMAP
18000000
BC2E0000
1D4B7D00
0E038DB8
0E038E5E
0A038E0E
0A034D0E
06035E0E
07076E5D
2FAF50BE
00019001
ENDCHAR
STARTCHAR a_a
ENCODING -1
SWIDTH 911 0
DWIDTH 15 0
BBX 15 11 0 0
BITMAP
0000BD00
00028740
0003C280
2F42C280
61C002C0
70C2FAC0
00CBD7C0
1FDE52C0
74DE57C0
B1B6E6D4
7E2F40B8
ENDCHAR
STARTCHAR t_h
ENCODING -1
SWIDTH 854 0
DWIDTH 14 0
BBX 14 21 0 -4
BITMAP
001A0000
01FE0000
000E0000
000A0000
008A0000
07490000
BFFF8000
0B0D0000
0A0D0000
0E0DBE00
0E0E4780
0E1E76C0
0E1D76D0
0B1C25D0
03ED62C0
00BF82C0
007E0280
02FFC380
00000B80
00007FC0
000000A0
ENDCHAR
STARTCHAR s_s
ENCODING -1
SWIDTH 654 0
DWIDTH 10 0
BBX 11 14 0 -2
BITMAP
000410
07EBE0
0A2D60
091C10
070D00
028A00
00A380
003AD0
52ACE0
A36CF0
6978B4
0BE0F0
0242E0
00BE40
ENDCHAR
STARTCHAR t_t
ENCODING -1
SWIDTH 569 0
DWIDTH 9 0
BBX 9 14 0 -1
BITMAP
007000
01B100
06B800
1FF000
BFE000
1DA000
1CA000
2CA000
2CB280
2C7880
1D1F80
0E0B00
074F00
01BD00
ENDCHAR
STARTCHAR e_e
ENCODING -1
SWIDTH 782 0
DWIDTH 13 0
BBX 13 9 0 0
BITMAP
1B82F400
749E1C00
B0AC0C00
E2AC0C00
BE2C1800
B41D2100
2D0F9140
06FB8200
0001BD00
ENDCHAR
STARTCHAR o_o
ENCODING -1
SWIDTH 751 0
DWIDTH 12 0
BBX 17 14 0 1
BITMAP
0000000B00
0000000B40
0000000240
0000000200
0000000100
0000000800
0BD001A000
3D2B6E4000
741D1C0000
B02D0E0000
B02D0E0000
B01D2D0000
387BF40000
1BE0000000
ENDCHAR
STARTCHAR l_l
ENCODING -1
SWIDTH 573 0
DWIDTH 9 0
BBX 10 16 -1 -3
BITMAP
020640
1F7F40
6F0F40
0B0B40
0B0B40
0B0B40
0B0B40
0B0740
0B0740
0B0740
0B0780
0B07C0
0F1BF0
BF4000
068000
001000
ENDCHAR
STARTCHAR z_z
ENCODING -1
SWIDTH 875 0
DWIDTH 14 0
BBX 14 11 0 -1
BITMAP
00FFE000
0001D000
3FF68000
12E34000
03CB0000
0B4E0400
1E2D1800
2C3FF8B0
740000B0
FBFA40A0
0016BF80
ENDCHAR
STARTCHAR j_j
ENCODING -1
SWIDTH 577 0
DWIDTH 9 0
BBX 11 21 -2 -10
BITMAP
000740
007740
007140
000FD0
06FEE0
00BDF0
003DB4
002D74
001D38
000E28
000E28
000E1C
000D1C
2D0D1C
BE0C1C
A41C18
802818
606014
2FB820
003D50
001F40
ENDCHAR
STARTCHAR f_b
ENCODING -1
SWIDTH 731 0
DWIDTH 12 0
BBX 13 21 -1 -3
BITMAP
006E0000
00924000
01428000
021F4000
032F0000
03068000
072F8000
1F978000
5B028000
07028000
07428000
07428000
07428000
0742EE00
0742C780
07428780
07428B80
0747FE00
07840000
0BF40000
14000000
ENDCHAR
STARTCHAR f_k
ENCODING -1
SWIDTH 708 0
DWIDTH 11 0
BBX 11 19 0 -3
BITMAP
004000
01C000
2FFD00
02DB00
05DF40
08DE00
0CD000
18D500
78D2E0
18D240
18D800
28FD00
28ED04
28EB04
28E388
28E1B8
7CF400
0BFF00
040000
ENDCHAR
STARTCHAR f_h
ENCODING -1
SWIDTH 873 0
DWIDTH 14 0
BBX 15 21 -1 -3
BITMAP
002E0000
00924000
01428000
021F4000
032F5000
0306D000
071FD000
07E5C000
6F40C000
0B00C000
0701C000
0741C000
0741CB80
0741E1E0
0742D0E0
0742C0E0
074280E0
074382F8
07AFD100
0BF45000
14000000
ENDCHAR
ENDFONT
